<svg width="18" height="18" viewBox="0 0 18 18" fill="none" xmlns="http://www.w3.org/2000/svg">
<path d="M16.9409 13.1029C16.9409 13.4511 16.843 13.7739 16.6861 14.0578L11.6714 8.4471L16.6318 4.10724C16.8247 4.41346 16.9409 4.77316 16.9409 5.16186V13.1029ZM8.99979 9.46584L15.9019 3.42663C15.6187 3.27157 15.2998 3.17648 14.9557 3.17648H3.04388C2.69939 3.17648 2.38035 3.27157 2.09826 3.42663L8.99979 9.46584ZM10.9241 9.10048L9.3264 10.4993C9.23294 10.5807 9.11658 10.6213 8.99979 10.6213C8.88293 10.6213 8.76657 10.5807 8.67311 10.4993L7.07509 9.10041L1.99695 14.7829C2.30133 14.9738 2.65805 15.0882 3.04384 15.0882H14.9557C15.3414 15.0882 15.6983 14.9738 16.0026 14.7829L10.9241 9.10048ZM1.36785 4.10721C1.17493 4.41343 1.05859 4.77313 1.05859 5.16186V13.1029C1.05859 13.4511 1.15607 13.7739 1.31355 14.0579L6.32767 8.44615L1.36785 4.10721Z" fill="#251D1A"/>
</svg>
